REM MD5 5b4f77dc95fe6b82931239f83e0c8621
FILE "Psychic Force - Puzzle Taisen (Japan) (Disc 2) (Premium CD-ROM).bin" BINARY
  TRACK 01 MODE2/2352
    INDEX 01 00:00:00
  TRACK 02 AUDIO
    INDEX 00 41:53:21
    INDEX 01 41:55:21
  TRACK 03 AUDIO
    INDEX 00 42:30:65
    INDEX 01 42:32:65
  TRACK 04 AUDIO
    INDEX 00 43:08:70
    INDEX 01 43:10:70
  TRACK 05 AUDIO
    INDEX 00 43:46:11
    INDEX 01 43:48:11
  TRACK 06 AUDIO
    INDEX 00 44:21:58
    INDEX 01 44:23:58
  TRACK 07 AUDIO
    INDEX 00 45:02:40
    INDEX 01 45:04:40
  TRACK 08 AUDIO
    INDEX 00 45:40:05
    INDEX 01 45:42:05
  TRACK 09 AUDIO
    INDEX 00 46:18:23
    INDEX 01 46:20:23
  TRACK 10 AUDIO
    INDEX 00 46:54:29
    INDEX 01 46:56:29
  TRACK 11 AUDIO
    INDEX 00 47:31:48
    INDEX 01 47:33:48
  TRACK 12 AUDIO
    INDEX 00 48:07:73
    INDEX 01 48:09:73
  TRACK 13 AUDIO
    INDEX 00 48:39:57
    INDEX 01 48:41:57
  TRACK 14 AUDIO
    INDEX 00 49:17:21
    INDEX 01 49:19:21
  TRACK 15 AUDIO
    INDEX 00 49:54:59
    INDEX 01 49:56:59
  TRACK 16 AUDIO
    INDEX 00 50:29:31
    INDEX 01 50:31:31
  TRACK 17 AUDIO
    INDEX 00 50:54:15
    INDEX 01 50:56:15
  TRACK 18 AUDIO
    INDEX 00 51:19:61
    INDEX 01 51:21:61
  TRACK 19 AUDIO
    INDEX 00 51:37:48
    INDEX 01 51:39:48
  TRACK 20 AUDIO
    INDEX 00 51:54:07
    INDEX 01 51:56:07
  TRACK 21 AUDIO
    INDEX 00 52:32:30
    INDEX 01 52:34:30
  TRACK 22 AUDIO
    INDEX 00 53:16:54
    INDEX 01 53:18:54
  TRACK 23 AUDIO
    INDEX 00 54:12:16
    INDEX 01 54:14:16
  TRACK 24 AUDIO
    INDEX 00 54:54:69
    INDEX 01 54:56:69
  TRACK 25 AUDIO
    INDEX 00 56:17:39
    INDEX 01 56:19:39
  TRACK 26 AUDIO
    INDEX 00 57:16:02
    INDEX 01 57:18:02
  TRACK 27 AUDIO
    INDEX 00 58:04:29
    INDEX 01 58:06:29
  TRACK 28 AUDIO
    INDEX 00 58:12:22
    INDEX 01 58:14:22
  TRACK 29 AUDIO
    INDEX 00 58:19:28
    INDEX 01 58:21:28
  TRACK 30 AUDIO
    INDEX 00 58:26:38
    INDEX 01 58:28:38
  TRACK 31 AUDIO
    INDEX 00 58:33:71
    INDEX 01 58:35:71
  TRACK 32 AUDIO
    INDEX 00 58:40:43
    INDEX 01 58:42:43
  TRACK 33 AUDIO
    INDEX 00 58:47:03
    INDEX 01 58:49:03
  TRACK 34 AUDIO
    INDEX 00 58:53:38
    INDEX 01 58:55:38
  TRACK 35 AUDIO
    INDEX 00 59:00:68
    INDEX 01 59:02:68
  TRACK 36 AUDIO
    INDEX 00 59:08:03
    INDEX 01 59:10:03
  TRACK 37 AUDIO
    INDEX 00 59:15:31
    INDEX 01 59:17:31
  TRACK 38 AUDIO
    INDEX 00 59:22:48
    INDEX 01 59:24:48
  TRACK 39 AUDIO
    INDEX 00 59:31:16
    INDEX 01 59:33:16
  TRACK 40 AUDIO
    INDEX 00 59:38:38
    INDEX 01 59:40:38
  TRACK 41 AUDIO
    INDEX 00 59:45:53
    INDEX 01 59:47:53
  TRACK 42 AUDIO
    INDEX 00 59:54:04
    INDEX 01 59:56:04
  TRACK 43 AUDIO
    INDEX 00 60:01:64
    INDEX 01 60:03:64
  TRACK 44 AUDIO
    INDEX 00 60:09:15
    INDEX 01 60:11:15
  TRACK 45 AUDIO
    INDEX 00 60:16:02
    INDEX 01 60:18:02
  TRACK 46 AUDIO
    INDEX 00 60:22:73
    INDEX 01 60:24:73
  TRACK 47 AUDIO
    INDEX 00 60:30:15
    INDEX 01 60:32:15
  TRACK 48 AUDIO
    INDEX 00 60:37:30
    INDEX 01 60:39:30
  TRACK 49 AUDIO
    INDEX 00 60:44:08
    INDEX 01 60:46:08
  TRACK 50 AUDIO
    INDEX 00 60:50:63
    INDEX 01 60:52:63
  TRACK 51 AUDIO
    INDEX 00 60:57:43
    INDEX 01 60:59:43
  TRACK 52 AUDIO
    INDEX 00 61:04:23
    INDEX 01 61:06:23
  TRACK 53 AUDIO
    INDEX 00 61:11:08
    INDEX 01 61:13:08
  TRACK 54 AUDIO
    INDEX 00 61:18:00
    INDEX 01 61:20:00
  TRACK 55 AUDIO
    INDEX 00 61:24:42
    INDEX 01 61:26:42
  TRACK 56 AUDIO
    INDEX 00 61:31:64
    INDEX 01 61:33:64
  TRACK 57 AUDIO
    INDEX 00 61:38:01
    INDEX 01 61:40:01
  TRACK 58 AUDIO
    INDEX 00 61:44:43
    INDEX 01 61:46:43
  TRACK 59 AUDIO
    INDEX 00 61:51:38
    INDEX 01 61:53:38
  TRACK 60 AUDIO
    INDEX 00 61:58:26
    INDEX 01 62:00:26
REM LEADOUT 64:37:07
